<svg width="61" height="61" viewBox="0 0 61 61" fill="none" xmlns="http://www.w3.org/2000/svg">
<g clip-path="url(#clip0_142_28)">
<path d="M59.888 47.514L56.049 35.996C58.105 32.381 59.189 28.28 59.189 24.103C59.189 10.817 48.38 0.00799561 35.094 0.00799561C26.852 0.00799561 19.27 4.231 14.875 11.015C17.964 9.724 21.352 9.008 24.904 9.008C39.294 9.01 51 20.716 51 35.104C51 39.1 50.095 42.887 48.482 46.276L58.745 48.977C58.83 48.999 58.915 49.01 59 49.01C59.006 49.01 59.014 49.009 59.02 49.01C59.573 49.01 60.02 48.562 60.02 48.01C60.019 47.829 59.972 47.66 59.888 47.514Z" fill="#8C92A0"/>
<path d="M24.9053 11.01C11.6193 11.01 0.810295 21.819 0.810295 35.104C0.810295 39.28 1.8943 43.381 3.9503 46.997L0.0512952 58.693C-0.0647048 59.042 0.0192952 59.425 0.270295 59.693C0.462295 59.898 0.727295 60.01 1.0003 60.01C1.0853 60.01 1.1703 59.999 1.2553 59.977L14.0433 56.612C17.3933 58.306 21.1403 59.199 24.9053 59.199C38.1913 59.199 49.0003 48.39 49.0003 35.104C49.0003 21.818 38.1913 11.01 24.9053 11.01ZM41.2463 26.799C41.0943 26.882 40.9293 26.922 40.7673 26.922C40.4133 26.922 40.0713 26.734 39.8893 26.403C37.0943 21.306 31.7743 17.724 26.0063 17.054C25.4573 16.991 25.0653 16.494 25.1283 15.946C25.1913 15.398 25.6863 15.004 26.2363 15.068C32.6373 15.811 38.5403 19.786 41.6423 25.441C41.9083 25.926 41.7303 26.534 41.2463 26.799Z" fill="#8C92A0"/>
</g>
<defs>
<clipPath id="clip0_142_28">
<rect width="60.019" height="60.019" fill="white"/>
</clipPath>
</defs>
</svg>
