<svg width="60" height="60" viewBox="0 0 60 60" fill="none" xmlns="http://www.w3.org/2000/svg">
<path d="M35 12.5C35 9.73857 32.7615 7.5 30 7.5C27.2385 7.5 25 9.73857 25 12.5M35 12.5H25M35 12.5C35 15.2614 32.7615 17.5 30 17.5C27.2385 17.5 25 15.2614 25 12.5M35 12.5H50M25 12.5H10M40 30C40 32.7615 42.2385 35 45 35C47.7615 35 50 32.7615 50 30C50 27.2385 47.7615 25 45 25C42.2385 25 40 27.2385 40 30ZM40 30H10M20 47.5C20 44.7385 17.7614 42.5 15 42.5C12.2386 42.5 10 44.7385 10 47.5C10 50.2615 12.2386 52.5 15 52.5C17.7614 52.5 20 50.2615 20 47.5ZM20 47.5H50" stroke="#8C92A0" stroke-width="2" stroke-linecap="round"/>
</svg>
