<svg width="22" height="24" viewBox="0 0 22 24" fill="none" xmlns="http://www.w3.org/2000/svg">
<path d="M16.0001 0C14.6103 0 13.2422 0.539177 12.1876 1.59375L2.81258 10.9688C-0.159642 13.941 -0.15942 18.7769 2.81258 21.75C5.7848 24.7222 10.6207 24.722 13.5938 21.75L19.8438 15.5L18.4376 14.0938L12.1876 20.3438C9.97872 22.5518 6.42661 22.5515 4.21883 20.3438C2.01083 18.1349 2.01105 14.5828 4.21883 12.375L13.5938 3C14.9387 1.65515 17.0927 1.65515 18.4376 3C19.7824 4.34485 19.7824 6.4989 18.4376 7.84375L9.06258 17.2188C8.58072 17.7 7.82446 17.6994 7.34383 17.2188C6.86253 16.7369 6.8632 15.9806 7.34383 15.5L15.9376 6.90625L14.5313 5.5L5.93758 14.0938C4.69221 15.3391 4.69287 17.3789 5.93758 18.625C7.18295 19.8704 9.22268 19.8697 10.4688 18.625L19.8438 9.25C21.953 7.14085 21.953 3.7029 19.8438 1.59375C18.7893 0.539177 17.3898 0 16.0001 0Z" fill="#8C92A0"/>
</svg>
