<svg width="70" height="70" viewBox="0 0 70 70" fill="none" xmlns="http://www.w3.org/2000/svg">
<g filter="url(#filter0_d_100215_21)">
<path d="M67.4403 21.126L64.3466 24.2211L45.7824 5.65965L48.8762 2.56417C52.2937 -0.853746 57.8356 -0.853746 61.2534 2.56417L67.4403 8.75268C70.8532 12.1687 70.8532 17.7083 67.4403 21.126ZM24.1258 58.2466C23.2715 59.101 23.2715 60.4846 24.1258 61.3391C24.9806 62.1982 26.365 62.1982 27.2193 61.3391L61.2534 27.3145L58.1562 24.219L24.1258 58.2466ZM8.65589 42.7803C7.80112 43.6354 7.80112 45.0185 8.65589 45.8734C9.51022 46.7278 10.8946 46.7278 11.7494 45.8734L45.7824 11.8461L42.69 8.75268L8.65589 42.7803ZM48.8721 14.9373L14.8421 48.9665C13.1333 50.672 13.1376 53.4447 14.8421 55.1535C16.5516 56.8624 19.3198 56.8704 21.0331 55.1489L55.0631 21.126L48.8721 14.9373ZM21.0243 64.4246C19.9779 63.377 19.4736 62.0493 19.2859 60.6812C18.8411 60.7499 18.3932 60.8138 17.9356 60.8138C15.5982 60.8138 13.4029 59.9002 11.7494 58.2466C10.0958 56.5889 9.18577 54.3967 9.18577 52.0596C9.18577 51.6334 9.24968 51.2181 9.30969 50.804C7.89547 50.6114 6.58828 49.992 5.56285 48.9665C5.46446 48.8689 5.43056 48.7363 5.34097 48.6293L0 69.9996L21.3148 64.6638C21.2209 64.5783 21.1146 64.5142 21.0243 64.4246Z" fill="#8C92A0"/>
</g>
<defs>
<filter id="filter0_d_100215_21" x="-4" y="0.000732422" width="78" height="77.9988" filterUnits="userSpaceOnUse" color-interpolation-filters="sRGB">
<feFlood flood-opacity="0" result="BackgroundImageFix"/>
<feColorMatrix in="SourceAlpha" type="matrix" values="0 0 0 0 0 0 0 0 0 0 0 0 0 0 0 0 0 0 127 0" result="hardAlpha"/>
<feOffset dy="4"/>
<feGaussianBlur stdDeviation="2"/>
<feComposite in2="hardAlpha" operator="out"/>
<feColorMatrix type="matrix" values="0 0 0 0 0 0 0 0 0 0 0 0 0 0 0 0 0 0 0.25 0"/>
<feBlend mode="normal" in2="BackgroundImageFix" result="effect1_dropShadow_100215_21"/>
<feBlend mode="normal" in="SourceGraphic" in2="effect1_dropShadow_100215_21" result="shape"/>
</filter>
</defs>
</svg>
