<svg width="17" height="17" viewBox="0 0 17 17" fill="none" xmlns="http://www.w3.org/2000/svg">
<path d="M14.9286 2.59091H2.07143C1.78727 2.59091 1.51475 2.71542 1.31381 2.93706C1.11288 3.15869 1 3.45929 1 3.77273V13.2273C1 13.5407 1.11288 13.8413 1.31381 14.0629C1.51475 14.2846 1.78727 14.4091 2.07143 14.4091H14.9286C15.2127 14.4091 15.4853 14.2846 15.6862 14.0629C15.8871 13.8413 16 13.5407 16 13.2273V3.77273C16 3.45929 15.8871 3.15869 15.6862 2.93706C15.4853 2.71542 15.2127 2.59091 14.9286 2.59091ZM13.75 3.77273L8.5 7.77909L3.25 3.77273H13.75ZM2.07143 13.2273V4.31045L8.19464 8.98455C8.28432 9.05317 8.39086 9.08994 8.5 9.08994C8.60914 9.08994 8.71568 9.05317 8.80536 8.98455L14.9286 4.31045V13.2273H2.07143Z" fill="white"/>
</svg>
