<svg width="60" height="60" viewBox="0 0 60 60" fill="none" xmlns="http://www.w3.org/2000/svg">
<path fill-rule="evenodd" clip-rule="evenodd" d="M26.3258 8.69365C16.5881 8.69365 8.69408 16.5877 8.69408 26.3254C8.69408 36.0632 16.5881 43.9573 26.3258 43.9573C36.0636 43.9573 43.9577 36.0632 43.9577 26.3254C43.9577 16.5877 36.0636 8.69365 26.3258 8.69365ZM4.28613 26.3254C4.28613 14.1532 14.1537 4.28571 26.3258 4.28571C38.4981 4.28571 48.3656 14.1532 48.3656 26.3254C48.3656 38.4977 38.4981 48.3651 26.3258 48.3651C14.1537 48.3651 4.28613 38.4977 4.28613 26.3254Z" fill="#8C92A0"/>
<path d="M42.5973 39.3187L55.0351 51.7565C55.9411 52.6625 55.9411 54.1314 55.0351 55.0374C54.1291 55.9434 52.6602 55.9434 51.7542 55.0374L39.3164 42.5996L42.5973 39.3187Z" fill="#8C92A0"/>
</svg>
