<svg width="60" height="60" viewBox="0 0 60 60" fill="none" xmlns="http://www.w3.org/2000/svg">
<path d="M22 50.0499C22 54.461 25.5886 58.0496 29.9997 58.0496C34.4108 58.0496 37.9994 54.461 37.9994 50.0499C37.9994 45.6389 34.4108 42.0502 29.9997 42.0502C25.5886 42.0502 22 45.6389 22 50.0499Z" fill="#8C92A0"/>
<path d="M22 30.0001C22 34.4111 25.5886 37.9998 29.9997 37.9998C34.4108 37.9998 37.9994 34.4111 37.9994 30.0001C37.9994 25.589 34.4108 22.0003 29.9997 22.0003C25.5886 22.0003 22 25.589 22 30.0001Z" fill="#8C92A0"/>
<path d="M22 9.95019C22 14.3612 25.5886 17.9499 29.9997 17.9499C34.4108 17.9499 37.9994 14.3612 37.9994 9.95019C37.9994 5.53913 34.4108 1.95048 29.9997 1.95048C25.5886 1.95048 22 5.53913 22 9.95019Z" fill="#8C92A0"/>
</svg>
