<svg width="60" height="60" viewBox="0 0 60 60" fill="none" xmlns="http://www.w3.org/2000/svg">
<path d="M25 47C25 49.757 27.243 52 30 52C32.757 52 35 49.757 35 47C35 44.243 32.757 42 30 42C27.243 42 25 44.243 25 47Z" fill="#8C92A0"/>
<path d="M25 30.5596C25 33.3166 27.243 35.5596 30 35.5596C32.757 35.5596 35 33.3166 35 30.5596C35 27.8026 32.757 25.5596 30 25.5596C27.243 25.5596 25 27.8026 25 30.5596Z" fill="#8C92A0"/>
<path d="M25 14.1192C25 16.8762 27.243 19.1192 30 19.1192C32.757 19.1192 35 16.8762 35 14.1192C35 11.3622 32.757 9.11922 30 9.11922C27.243 9.11922 25 11.3622 25 14.1192Z" fill="#8C92A0"/>
</svg>
