<svg width="32" height="32" viewBox="0 0 32 32" fill="none" xmlns="http://www.w3.org/2000/svg">
<path d="M16 27C13.3478 27 10.8043 25.9464 8.92893 24.0711C7.05357 22.1957 6 19.6522 6 17C6 16.7348 6.10536 16.4804 6.29289 16.2929C6.48043 16.1054 6.73478 16 7 16C7.26522 16 7.51957 16.1054 7.70711 16.2929C7.89464 16.4804 8 16.7348 8 17C8 19.1217 8.84285 21.1566 10.3431 22.6569C11.8434 24.1571 13.8783 25 16 25C18.1217 25 20.1566 24.1571 21.6569 22.6569C23.1571 21.1566 24 19.1217 24 17C24 16.7348 24.1054 16.4804 24.2929 16.2929C24.4804 16.1054 24.7348 16 25 16C25.2652 16 25.5196 16.1054 25.7071 16.2929C25.8946 16.4804 26 16.7348 26 17C26 19.6522 24.9464 22.1957 23.0711 24.0711C21.1957 25.9464 18.6522 27 16 27Z" fill="#8C92A0"/>
<path d="M16 31C15.7348 31 15.4804 30.8946 15.2929 30.7071C15.1054 30.5196 15 30.2652 15 30V26C15 25.7348 15.1054 25.4804 15.2929 25.2929C15.4804 25.1054 15.7348 25 16 25C16.2652 25 16.5196 25.1054 16.7071 25.2929C16.8946 25.4804 17 25.7348 17 26V30C17 30.2652 16.8946 30.5196 16.7071 30.7071C16.5196 30.8946 16.2652 31 16 31Z" fill="#8C92A0"/>
<path d="M16 23C14.4087 23 12.8826 22.3679 11.7574 21.2426C10.6321 20.1174 10 18.5913 10 17V7C10 5.4087 10.6321 3.88258 11.7574 2.75736C12.8826 1.63214 14.4087 1 16 1C17.5913 1 19.1174 1.63214 20.2426 2.75736C21.3679 3.88258 22 5.4087 22 7V17C22 18.5913 21.3679 20.1174 20.2426 21.2426C19.1174 22.3679 17.5913 23 16 23ZM16 3C14.9391 3 13.9217 3.42143 13.1716 4.17157C12.4214 4.92172 12 5.93913 12 7V17C12 18.0609 12.4214 19.0783 13.1716 19.8284C13.9217 20.5786 14.9391 21 16 21C17.0609 21 18.0783 20.5786 18.8284 19.8284C19.5786 19.0783 20 18.0609 20 17V7C20 5.93913 19.5786 4.92172 18.8284 4.17157C18.0783 3.42143 17.0609 3 16 3Z" fill="#8C92A0"/>
</svg>
