<svg width="30" height="26" viewBox="0 0 30 26" fill="none" xmlns="http://www.w3.org/2000/svg">
<path d="M17 26.0001C16.7961 25.9996 16.5972 25.9368 16.43 25.8201L6.43 18.8201C6.29753 18.7282 6.18925 18.6056 6.11438 18.4629C6.03951 18.3201 6.00027 18.1613 6 18.0001V8.0001C6.00027 7.83888 6.03951 7.68011 6.11438 7.53733C6.18925 7.39455 6.29753 7.27199 6.43 7.1801L16.43 0.180096C16.5758 0.081452 16.745 0.0230332 16.9206 0.0107421C17.0962 -0.00154893 17.2719 0.0327231 17.43 0.110095C17.5987 0.190402 17.7414 0.316341 17.8422 0.473642C17.9429 0.630942 17.9976 0.813315 18 1.0001V25.0001C18.0004 25.1837 17.9502 25.3639 17.8549 25.5209C17.7597 25.6779 17.623 25.8056 17.46 25.8901C17.3177 25.963 17.1599 26.0007 17 26.0001ZM8 17.4801L16 23.0801V2.9201L8 8.5201V17.4801Z" fill="#C0C0C0"/>
<path d="M7 19H3C2.20435 19 1.44129 18.6839 0.87868 18.1213C0.31607 17.5587 0 16.7956 0 16V10C0 9.20435 0.31607 8.44129 0.87868 7.87868C1.44129 7.31607 2.20435 7 3 7H7C7.26522 7 7.51957 7.10536 7.70711 7.29289C7.89464 7.48043 8 7.73478 8 8V18C8 18.2652 7.89464 18.5196 7.70711 18.7071C7.51957 18.8946 7.26522 19 7 19V19ZM3 9C2.73478 9 2.48043 9.10536 2.29289 9.29289C2.10536 9.48043 2 9.73478 2 10V16C2 16.2652 2.10536 16.5196 2.29289 16.7071C2.48043 16.8946 2.73478 17 3 17H6V9H3Z" fill="#C0C0C0"/>
<path d="M21.2233 8.04892L19.8091 9.46313L28.2944 17.9484L29.7086 16.5342L21.2233 8.04892Z" fill="#C0C0C0"/>
<path d="M28.2944 8.0489L19.8091 16.5342L21.2233 17.9484L29.7086 9.46311L28.2944 8.0489Z" fill="#C0C0C0"/>
</svg>
