<svg width="60" height="60" viewBox="0 0 60 60" fill="none" xmlns="http://www.w3.org/2000/svg">
<path fill-rule="evenodd" clip-rule="evenodd" d="M10.0606 22.5L10 22.3275C8.65098 18.4604 7.5 13.175 7.5 10C7.5 8.625 8.625 7.5 10 7.5C10 7.5 12.5 7.5 17.5 7.5C20.2614 7.5 22.5 9.73858 22.5 12.5V17.5C22.5 20.2614 20.2614 22.5 17.5 22.5H15.4076C19.4664 32.527 27.473 40.5336 37.5 44.5924V42.5C37.5 39.7386 39.7386 37.5 42.5 37.5H47.5C50.2614 37.5 52.5 39.7386 52.5 42.5C52.5 47.5 52.5 50 52.5 50C52.5 51.125 51.125 52.5 50 52.5C45.6863 52.5 41.4015 51.361 37.5 50C24.7138 45.4201 14.5799 35.2862 10.0606 22.5Z" fill="#8C92A0"/>
</svg>
