<svg width="16" height="16" viewBox="0 0 16 16" fill="none" xmlns="http://www.w3.org/2000/svg">
<g clip-path="url(#clip0_100213_9)">
<path d="M8 1C11.9 1 15 4.1 15 8C15 11.9 11.9 15 8 15C4.1 15 1 11.9 1 8C1 4.1 4.1 1 8 1ZM8 0C3.6 0 0 3.6 0 8C0 12.4 3.6 16 8 16C12.4 16 16 12.4 16 8C16 3.6 12.4 0 8 0Z" fill="#8C92A0"/>
<path d="M7.9999 13.2C5.9999 13.2 4.1999 12 3.3999 10.1L4.2999 9.69995C4.8999 11.2 6.3999 12.1 7.9999 12.1C9.5999 12.1 11.0999 11.1 11.6999 9.69995L12.5999 10.1C11.7999 12.1 9.9999 13.2 7.9999 13.2Z" fill="#8C92A0"/>
<path d="M7 6C7 6.552 6.552 7 6 7C5.448 7 5 6.552 5 6C5 5.448 5.448 5 6 5C6.552 5 7 5.448 7 6Z" fill="#8C92A0"/>
<path d="M11 6C11 6.552 10.552 7 10 7C9.448 7 9 6.552 9 6C9 5.448 9.448 5 10 5C10.552 5 11 5.448 11 6Z" fill="#8C92A0"/>
</g>
<defs>
<clipPath id="clip0_100213_9">
<rect width="16" height="16" fill="white"/>
</clipPath>
</defs>
</svg>
