<svg width="50" height="50" viewBox="0 0 50 50" fill="none" xmlns="http://www.w3.org/2000/svg">
<path d="M25 1C20.2533 1 15.6131 2.40758 11.6663 5.04473C7.71954 7.68188 4.64341 11.4302 2.8269 15.8156C1.0104 20.201 0.535119 25.0266 1.46116 29.6822C2.38721 34.3377 4.67299 38.6141 8.02945 41.9706C11.3859 45.327 15.6623 47.6128 20.3178 48.5388C24.9734 49.4649 29.799 48.9896 34.1844 47.1731C38.5698 45.3566 42.3181 42.2805 44.9553 38.3337C47.5924 34.3869 49 29.7468 49 25C49 18.6348 46.4714 12.5303 41.9706 8.02944C37.4697 3.52856 31.3652 1 25 1V1ZM25 47C20.6488 47 16.3953 45.7097 12.7775 43.2923C9.15958 40.8749 6.33979 37.439 4.67466 33.419C3.00953 29.3991 2.57386 24.9756 3.42273 20.708C4.27161 16.4404 6.36691 12.5204 9.44366 9.44365C12.5204 6.3669 16.4404 4.2716 20.708 3.42272C24.9756 2.57385 29.3991 3.00952 33.419 4.67465C37.439 6.33978 40.875 9.15957 43.2923 12.7775C45.7097 16.3953 47 20.6488 47 25C47 30.8348 44.6822 36.4306 40.5564 40.5564C36.4306 44.6822 30.8348 47 25 47Z" fill="#C0C0C0"/>
<path d="M25 25.4099C21.5522 25.4099 18.2456 26.7796 15.8076 29.2175C13.3696 31.6555 12 34.9621 12 38.4099C12 38.6751 12.1054 38.9295 12.2929 39.117C12.4804 39.3046 12.7348 39.4099 13 39.4099C13.2652 39.4099 13.5196 39.3046 13.7071 39.117C13.8946 38.9295 14 38.6751 14 38.4099C14 35.4925 15.1589 32.6946 17.2218 30.6317C19.2847 28.5688 22.0826 27.4099 25 27.4099C27.9174 27.4099 30.7153 28.5688 32.7782 30.6317C34.8411 32.6946 36 35.4925 36 38.4099C36 38.6751 36.1054 38.9295 36.2929 39.117C36.4804 39.3046 36.7348 39.4099 37 39.4099C37.2652 39.4099 37.5196 39.3046 37.7071 39.117C37.8946 38.9295 38 38.6751 38 38.4099C38 36.7027 37.6637 35.0123 37.0104 33.435C36.3571 31.8578 35.3995 30.4247 34.1924 29.2175C32.9852 28.0104 31.5521 27.0528 29.9749 26.3995C28.3977 25.7462 26.7072 25.4099 25 25.4099V25.4099Z" fill="#C0C0C0"/>
<path d="M25 23.71C25.9202 23.6854 26.8266 23.4796 27.6671 23.1042C28.5077 22.7289 29.2659 22.1914 29.8985 21.5226C30.5311 20.8539 31.0255 20.0669 31.3535 19.2067C31.6815 18.3466 31.8366 17.4302 31.81 16.51C31.838 15.5891 31.6838 14.6716 31.3564 13.8103C31.029 12.949 30.5348 12.1608 29.9021 11.491C29.2694 10.8211 28.5107 10.2828 27.6695 9.9068C26.8283 9.53083 25.9211 9.32463 25 9.30005C24.0789 9.32463 23.1717 9.53083 22.3305 9.9068C21.4893 10.2828 20.7306 10.8211 20.0979 11.491C19.4652 12.1608 18.971 12.949 18.6436 13.8103C18.3162 14.6716 18.162 15.5891 18.19 16.51C18.1634 17.4302 18.3185 18.3466 18.6465 19.2067C18.9745 20.0669 19.4689 20.8539 20.1015 21.5226C20.7341 22.1914 21.4923 22.7289 22.3329 23.1042C23.1734 23.4796 24.0798 23.6854 25 23.71V23.71ZM25 11.3C25.6585 11.3245 26.3057 11.4789 26.9043 11.7543C27.503 12.0297 28.0413 12.4207 28.4883 12.9049C28.9353 13.3891 29.2822 13.9569 29.509 14.5756C29.7358 15.1942 29.8381 15.8517 29.81 16.51C29.8368 17.1676 29.7335 17.824 29.506 18.4415C29.2786 19.059 28.9315 19.6256 28.4846 20.1087C28.0378 20.5918 27.4999 20.982 26.9019 21.2567C26.304 21.5315 25.6576 21.6856 25 21.71C24.3424 21.6856 23.696 21.5315 23.098 21.2567C22.5001 20.982 21.9622 20.5918 21.5154 20.1087C21.0685 19.6256 20.7214 19.059 20.4939 18.4415C20.2665 17.824 20.1632 17.1676 20.19 16.51C20.1619 15.8517 20.2642 15.1942 20.491 14.5756C20.7178 13.9569 21.0647 13.3891 21.5117 12.9049C21.9587 12.4207 22.497 12.0297 23.0956 11.7543C23.6943 11.4789 24.3415 11.3245 25 11.3V11.3Z" fill="#C0C0C0"/>
</svg>
