<svg width="15" height="15" viewBox="0 0 15 15" fill="none" xmlns="http://www.w3.org/2000/svg">
<path d="M9.93874 11.1566L10.1814 11.1868L10.3543 11.0139L11.6437 9.72392C11.644 9.72359 11.6444 9.72326 11.6447 9.72293C11.7496 9.61963 11.8822 9.54893 12.0264 9.51934C12.1707 9.48973 12.3204 9.50255 12.4576 9.55624C12.4579 9.55638 12.4583 9.55652 12.4586 9.55666L14.0277 10.1834C14.0281 10.1835 14.0285 10.1837 14.0289 10.1839C14.1668 10.2402 14.2851 10.336 14.369 10.4593C14.4527 10.5824 14.4982 10.7275 14.5 10.8764V13.7559C14.499 13.8567 14.4777 13.9564 14.4373 14.0489C14.3968 14.1419 14.3379 14.2257 14.2641 14.2952C14.1904 14.3648 14.1033 14.4187 14.0082 14.4538C13.9139 14.4885 13.8135 14.5039 13.7132 14.4992C8.36243 14.1653 5.185 11.7446 3.27874 8.99334C1.35716 6.21994 0.710467 3.08235 0.50446 1.33358C0.492969 1.22852 0.503743 1.12222 0.536082 1.0216C0.568563 0.920547 0.62206 0.827529 0.693041 0.748665C0.764022 0.669802 0.850877 0.606881 0.947886 0.564029C1.04489 0.521178 1.14986 0.499363 1.25589 0.500014L1.25589 0.500024H1.25896H4.04324C4.19173 0.500593 4.33669 0.545522 4.45952 0.629081C4.58253 0.712764 4.67774 0.831372 4.73286 0.969672L4.73295 0.969891L5.36147 2.54472L5.36146 2.54472L5.36283 2.54808C5.41816 2.68386 5.43228 2.83296 5.40342 2.97673C5.37459 3.12033 5.30415 3.25224 5.20094 3.35603C5.20081 3.35615 5.20069 3.35628 5.20056 3.3564L3.90957 4.64792L3.73182 4.82574L3.76856 5.07446L4.26319 5.0014C3.76856 5.07446 3.7686 5.07471 3.76864 5.07498L3.76873 5.07562L3.76897 5.07723L3.76968 5.08184L3.77202 5.09649C3.774 5.10862 3.77685 5.12545 3.78067 5.14669C3.78832 5.18917 3.79988 5.24934 3.81624 5.32486C3.84894 5.4758 3.90094 5.68868 3.97941 5.9446C4.13598 6.45517 4.40011 7.14422 4.83171 7.85641C5.69996 9.28913 7.25385 10.8216 9.93874 11.1566Z" stroke="white"/>
</svg>
